<svg width="670" height="208" viewBox="0 0 670 208" fill="none" xmlns="http://www.w3.org/2000/svg">
<g clip-path="url(#clip0_293_28)">
<rect width="670" height="208" fill="#171414"/>
<path d="M67.1 138.2V129.2H58V92H68.1V128.2H94.3V92H104.5V129.2H95.3V138.2H67.1ZM125.694 138.2V129.2H116.594V73.9H126.694V92H153.894V101.1H163.094V129.2H153.894V138.2H125.694ZM126.694 128.2H152.894V102H126.694V128.2ZM182.334 138.2V129.2H173.234V101.1H182.334V92H210.534V101.1H219.734V111H209.534V102H183.334V110H201.534V120.1H183.334V128.2H209.534V119H219.734V129.1H210.534V138.2H182.334ZM231.828 138.2V101.1H240.928V92H269.128V101.1H278.328V111H268.128V102H241.928V138.2H231.828ZM298.545 138.2V129.2H289.445V119.1H299.545V128.2H325.745V111H298.545V102H289.445V83H298.545V73.9H326.745V83H335.945V93H325.745V84H299.545V101.1H326.745V110H335.945V129.2H326.745V138.2H298.545ZM348.039 138.2V83H357.139V73.9H367.139V84H358.139V101.1H366.139V92H375.339V83H384.339V73.9H394.539V84H385.339V93H376.339V102H367.139V110H376.339V119.1H385.339V128.2H394.539V138.2H384.339V129.2H375.339V120.1H366.139V111H358.139V138.2H348.039ZM406.633 138.2V128.2H415.733V84H406.633V73.9H434.933V84H425.733V128.2H434.933V138.2H406.633ZM456.163 138.2V129.2H447.063V73.9H457.163V128.2H483.363V119.1H493.563V129.2H484.363V138.2H456.163ZM514.756 138.2V129.2H505.656V73.9H515.756V128.2H541.956V119.1H552.156V129.2H542.956V138.2H514.756ZM573.35 138.2V129.2H564.25V119.1H574.35V128.2H600.55V111H573.35V102H564.25V83H573.35V73.9H601.55V83H610.75V93H600.55V84H574.35V101.1H601.55V110H610.75V129.2H601.55V138.2H573.35Z" fill="white"/>
</g>
<defs>
<clipPath id="clip0_293_28">
<rect width="670" height="208" fill="white"/>
</clipPath>
</defs>
</svg>
