<svg width="670" height="208" viewBox="0 0 670 208" fill="none" xmlns="http://www.w3.org/2000/svg">
<g clip-path="url(#clip0_293_33)">
<rect width="670" height="208" fill="white"/>
<path d="M63.1 141.2V132.2H54V95H64.1V131.2H90.3V95H100.5V132.2H91.3V141.2H63.1ZM121.694 141.2V132.2H112.594V76.9H122.694V95H149.894V104.1H159.094V132.2H149.894V141.2H121.694ZM122.694 131.2H148.894V105H122.694V131.2ZM178.334 141.2V132.2H169.234V104.1H178.334V95H206.534V104.1H215.734V114H205.534V105H179.334V113H197.534V123.1H179.334V131.2H205.534V122H215.734V132.1H206.534V141.2H178.334ZM227.828 141.2V104.1H236.928V95H265.128V104.1H274.328V114H264.128V105H237.928V141.2H227.828ZM294.545 141.2V132.2H285.445V122.1H295.545V131.2H321.745V114H294.545V105H285.445V86H294.545V76.9H322.745V86H331.945V96H321.745V87H295.545V104.1H322.745V113H331.945V132.2H322.745V141.2H294.545ZM344.039 141.2V86H353.139V76.9H363.139V87H354.139V104.1H362.139V95H371.339V86H380.339V76.9H390.539V87H381.339V96H372.339V105H363.139V113H372.339V122.1H381.339V131.2H390.539V141.2H380.339V132.2H371.339V123.1H362.139V114H354.139V141.2H344.039ZM402.633 141.2V131.2H411.733V87H402.633V76.9H430.933V87H421.733V131.2H430.933V141.2H402.633ZM452.163 141.2V132.2H443.063V76.9H453.163V131.2H479.363V122.1H489.563V132.2H480.363V141.2H452.163ZM510.756 141.2V132.2H501.656V76.9H511.756V131.2H537.956V122.1H548.156V132.2H538.956V141.2H510.756ZM569.35 141.2V132.2H560.25V122.1H570.35V131.2H596.55V114H569.35V105H560.25V86H569.35V76.9H597.55V86H606.75V96H596.55V87H570.35V104.1H597.55V113H606.75V132.2H597.55V141.2H569.35Z" fill="#B7B7B7"/>
</g>
<defs>
<clipPath id="clip0_293_33">
<rect width="670" height="208" fill="white"/>
</clipPath>
</defs>
</svg>
